<?xml version="1.0" encoding="utf-8"?>
<svg xmlns="http://www.w3.org/2000/svg" xmlns:svg="http://www.w3.org/2000/svg" version="1.1" viewBox="0 0 1400 440">
	<title>The titlepage for the Standard Ebooks edition of Aladdin and the Magic Lamp, by Youhenna Diab</title>
	<g aria-label="ALADDIN">
		<path d="m 507.23099,52.807016 h -16.2807 L 459.79239,130 h 18.90059 l 5.7076,-15.4386 H 513.7807 L 519.4883,130 h 18.90059 z m 0.5614,46.31579 h -17.4035 l 8.60818,-22.45614 h 0.18714 z"/>
		<path d="M 563.89912,52.807016 H 546.30848 V 130 h 44.16374 v -15.4386 h -26.5731 z"/>
		<path d="m 644.78948,52.807016 h -16.2807 L 597.35088,130 h 18.90059 l 5.7076,-15.4386 h 29.38012 L 657.04679,130 h 18.90058 z m 0.5614,46.31579 h -17.40351 l 8.60819,-22.45614 h 0.18713 z"/>
		<path d="M 683.86696,52.807016 V 130 h 22.36258 c 21.23976,0 38.92398,-16.09357 38.92398,-38.643276 0,-22.45614 -17.77778,-38.549708 -38.92398,-38.549708 z M 701.45761,114.2807 V 68.526315 h 2.71345 c 13.09941,0 21.9883,10.011696 21.9883,22.923977 -0.0936,12.912278 -8.98245,22.830408 -21.9883,22.830408 z"/>
		<path d="M 757.9459,52.807016 V 130 h 22.36257 c 21.23977,0 38.92398,-16.09357 38.92398,-38.643276 0,-22.45614 -17.77778,-38.549708 -38.92398,-38.549708 z M 775.53654,114.2807 V 68.526315 h 2.71345 c 13.09942,0 21.98831,10.011696 21.98831,22.923977 -0.0936,12.912278 -8.98246,22.830408 -21.98831,22.830408 z"/>
		<path d="M 849.61549,52.807016 H 832.02485 V 130 h 17.59064 z"/>
		<path d="m 883.48976,82.093566 h 0.18713 L 914.36695,130 H 931.9576 V 52.807016 h -17.59065 v 47.906434 h -0.18713 L 883.48976,52.807016 H 865.89911 V 130 h 17.59065 z"/>
	</g>
	<g aria-label="AND THE MAGIC LAMP">
		<path d="m 158.73318,152.80702 h -16.2807 L 111.29458,230 h 18.90059 l 5.7076,-15.4386 h 29.38012 L 170.99049,230 h 18.90058 z m 0.5614,46.31579 h -17.40351 l 8.60819,-22.45614 h 0.18713 z"/>
		<path d="m 215.40131,182.09357 h 0.18713 L 246.2785,230 h 17.59065 V 152.80702 H 246.2785 v 47.90643 h -0.18713 L 215.40131,152.80702 H 197.81066 V 230 h 17.59065 z"/>
		<path d="M 280.11331,152.80702 V 230 h 22.36257 c 21.23977,0 38.92398,-16.09357 38.92398,-38.64328 0,-22.45614 -17.77778,-38.5497 -38.92398,-38.5497 z m 17.59064,61.47368 v -45.75439 h 2.71345 c 13.09942,0 21.98831,10.0117 21.98831,22.92398 -0.0936,12.91228 -8.98246,22.83041 -21.98831,22.83041 z"/>
		<path d="m 375.34284,168.24561 h 18.33918 V 230 h 17.59065 v -61.75439 h 18.33918 v -15.43859 h -54.26901 z"/>
		<path d="m 458.53729,199.02924 h 24.88889 V 230 h 17.59065 v -77.19298 h -17.59065 v 30.78362 H 458.53729 V 152.80702 H 440.94665 V 230 h 17.59064 z"/>
		<path d="M 561.38231,152.80702 H 517.21856 V 230 h 44.16375 v -15.4386 h -26.5731 v -15.53216 h 25.45029 v -15.4386 h -25.45029 v -15.34503 h 26.5731 z"/>
		<path d="m 670.89254,230 h 17.59065 l -6.92398,-77.19298 h -18.71345 l -17.12281,44.53801 -17.1228,-44.53801 H 609.88669 L 602.96272,230 h 17.59064 l 3.64912,-45.75439 h 0.46784 l 15.81287,45.28655 h 10.47953 l 15.81286,-45.28655 h 0.46784 z"/>
		<path d="m 739.73464,152.80702 h -16.2807 L 692.29605,230 h 18.90058 l 5.7076,-15.4386 h 29.38012 L 751.99195,230 h 18.90059 z m 0.56141,46.31579 h -17.40351 l 8.60818,-22.45614 h 0.18714 z"/>
		<path d="m 848.6133,186.77193 h -35.64912 v 13.56725 h 17.77778 c 0,9.45029 -8.32749,14.87719 -16.74854,14.87719 -10.8538,0 -19.64913,-10.66666 -19.64913,-23.76608 0,-13.38012 8.79533,-24.14035 19.64913,-24.14035 6.83041,0 12.72514,2.71345 17.21637,9.91813 l 11.50877,-12.63158 c -6.73684,-8.14035 -16.18713,-13.19298 -29.75438,-13.19298 -21.70761,0 -37.61404,17.87134 -37.61404,40.04678 0,22.08187 16.84211,39.95322 37.61404,39.95322 15.15789,0 31.43859,-8.32749 35.64912,-27.88304 z"/>
		<path d="M 878.88819,152.80702 H 861.29754 V 230 h 17.59065 z"/>
		<path d="m 933.32382,214.09357 c -17.68421,0 -25.45029,-12.35088 -25.45029,-22.73685 0,-10.29239 7.76608,-22.64327 25.45029,-22.64327 8.98246,0 15.1579,4.77193 15.1579,4.77193 l 7.48538,-14.97076 c 0,0 -8.60819,-7.11111 -25.35673,-7.11111 -21.89473,0 -41.82456,17.96491 -41.82456,40.14035 0,22.08187 20.02339,39.85965 41.82456,39.85965 16.74854,0 25.35673,-7.11111 25.35673,-7.11111 l -7.48538,-14.97076 c 0,0 -6.17544,4.77193 -15.1579,4.77193 z"/>
		<path d="M 1015.9642,152.80702 H 998.37353 V 230 h 44.16377 v -15.4386 h -26.5731 z"/>
		<path d="m 1096.8546,152.80702 h -16.2807 L 1049.416,230 h 18.9006 l 5.7076,-15.4386 h 29.3801 L 1109.1119,230 h 18.9006 z m 0.5614,46.31579 h -17.4035 l 8.6082,-22.45614 h 0.1871 z"/>
		<path d="m 1199.7449,230 h 17.5907 l -6.924,-77.19298 h -18.7135 l -17.1228,44.53801 -17.1228,-44.53801 h -18.7134 L 1131.8151,230 h 17.5906 l 3.6492,-45.75439 h 0.4678 l 15.8129,45.28655 h 10.4795 l 15.8129,-45.28655 h 0.4678 z"/>
		<path d="M 1229.3824,152.80702 V 230 h 17.5906 v -28.63158 h 10.5731 c 15.0644,0 26.386,-8.88889 26.386,-24.79532 0,-16 -11.3216,-23.76608 -26.386,-23.76608 z m 17.5906,34.52631 V 166.8421 h 4.9591 c 6.924,0 13.4737,2.33919 13.4737,10.2924 0,7.85965 -6.5497,10.19883 -13.4737,10.19883 z"/>
	</g>
	<g aria-label="YOUHENNA DIAB">
		<path d="m 355.46327,332.10526 21.33333,31.92983 V 390 h 13.19299 v -25.96491 l 21.33333,-31.92983 h -15.85965 l -12.07018,18.52632 -12.07017,-18.52632 z"/>
		<path d="m 415.85472,361.01754 c 0,16.91228 12.07017,30.03509 29.19298,30.03509 16.63158,0 29.12281,-13.12281 29.12281,-30.03509 0,-16.91228 -13.05263,-29.96491 -29.12281,-29.96491 -15.92982,0 -29.19298,13.05263 -29.19298,29.96491 z m 14.24561,0 c 0,-8.63157 4.77193,-17.26315 14.94737,-17.26315 10.24561,0 14.87719,8.63158 14.87719,17.26315 0,8.63158 -4.35087,17.26316 -14.87719,17.26316 -10.80702,0 -14.94737,-8.63158 -14.94737,-17.26316 z"/>
		<path d="m 529.48301,332.10526 h -13.19298 v 33.47369 c 0,9.68421 -2.94737,12.49123 -9.40351,12.49123 -6.45614,0 -9.40351,-2.80702 -9.40351,-12.49123 v -33.47369 h -13.19298 v 37.33334 c 0,14.31579 7.85965,21.61403 22.59649,21.61403 14.73684,0 22.59649,-7.29824 22.59649,-21.61403 z"/>
		<path d="m 555.40515,366.77193 h 18.66666 V 390 h 13.19299 v -57.89474 h -13.19299 v 23.08772 H 555.40515 V 332.10526 H 542.21217 V 390 h 13.19298 z"/>
		<path d="M 633.78892,332.10526 H 600.66611 V 390 h 33.12281 V 378.42105 H 613.8591 v -11.64912 h 19.08772 V 355.19298 H 613.8591 v -11.50877 h 19.92982 z"/>
		<path d="m 659.56634,354.07018 h 0.14035 L 682.72424,390 h 13.19298 v -57.89474 h -13.19298 v 35.92983 h -0.14035 L 659.56634,332.10526 H 646.37336 V 390 h 13.19298 z"/>
		<path d="m 722.5433,354.07018 h 0.14035 L 745.7012,390 h 13.19298 V 332.10526 H 745.7012 v 35.92983 h -0.14036 L 722.5433,332.10526 H 709.35032 V 390 h 13.19298 z"/>
		<path d="M 801.73082,332.10526 H 789.52029 L 766.15187,390 h 14.17544 l 4.2807,-11.57895 H 806.6431 L 810.9238,390 h 14.17544 z m 0.42105,34.73685 H 789.09924 L 795.55538,350 h 0.14035 z"/>
		<path d="M 856.47752,332.10526 V 390 h 16.77193 c 15.92982,0 29.19298,-12.07018 29.19298,-28.98246 0,-16.8421 -13.33334,-28.91228 -29.19298,-28.91228 z m 13.19298,46.10527 v -34.31579 h 2.03509 c 9.82456,0 16.49122,7.50877 16.49122,17.19298 -0.0702,9.68421 -6.73684,17.12281 -16.49122,17.12281 z"/>
		<path d="M 926.47973,332.10526 H 913.28675 V 390 h 13.19298 z"/>
		<path d="M 969.34596,332.10526 H 957.13543 L 933.76701,390 h 14.17544 l 4.2807,-11.57895 h 22.03509 L 978.53894,390 h 14.17544 z m 0.42105,34.73685 H 956.71438 L 963.17052,350 h 0.14035 z"/>
		<path d="M 999.90406,332.10526 V 390 h 21.96494 c 12,0 18.9473,-6.59649 18.9473,-16.14035 0,-9.33333 -5.1228,-13.33333 -12.3508,-14.59649 4.9122,-2.52632 7.228,-7.08772 7.228,-12.42105 0,-11.01755 -7.8596,-14.73685 -17.8245,-14.73685 z m 13.19294,22.66667 V 342.2807 h 1.0527 c 5.7544,0 8.7719,1.75439 8.7719,5.89474 0,4.8421 -3.0877,6.59649 -8.7719,6.59649 z m 0,25.05263 v -13.68421 h 4.1404 c 6.2456,0 9.6842,1.89474 9.6842,7.22807 0,4.5614 -3.4386,6.45614 -9.6842,6.45614 z"/>
	</g>
</svg>
